# xmcd
#
# Track frame offsets:
#	150
#	14416
#	27576
#	37443
#	52143
#	59605
#
# Disc length: 960 seconds
#
# Revision: 1
# Processed by: cddbd v1.5.1PL2 Copyright (c) Steve Scherf et al.
# Submitted via: audiograbber 1.83.01
#
DISCID=5c03be06
DTITLE=ROCKIN' ROARY and the Stone Valley Band - Rockin' up the Country
DYEAR=1900
DGENRE=Country
TTITLE0=Rockin' at the dance hall
TTITLE1=Cheerin' queen
TTITLE2=Nashville lady
TTITLE3=Music City, USA
TTITLE4=Happy birthday, lots of luck
TTITLE5=Mabelleene
EXTD=
EXTT0=
EXTT1=
EXTT2=
EXTT3=
EXTT4=
EXTT5=
PLAYORDER=
